# Blender 3.6.5
# www.blender.org
mtllib llantita.mtl
o llantita
v 0.250000 1.000000 -0.000000
v -0.250000 1.000000 -0.000000
v 0.250000 0.951100 0.309000
v -0.250000 0.951100 0.309000
v 0.250000 0.809000 0.587800
v -0.250000 0.809000 0.587800
v 0.250000 0.587800 0.809000
v -0.250000 0.587800 0.809000
v 0.250000 0.309000 0.951100
v -0.250000 0.309000 0.951100
v 0.250000 0.000000 1.000000
v -0.250000 0.000000 1.000000
v 0.250000 -0.309000 0.951100
v -0.250000 -0.309000 0.951100
v 0.250000 -0.587800 0.809000
v -0.250000 -0.587800 0.809000
v 0.250000 -0.809000 0.587800
v -0.250000 -0.809000 0.587800
v 0.250000 -0.951100 0.309000
v -0.250000 -0.951100 0.309000
v 0.250000 -1.000000 0.000000
v -0.250000 -1.000000 0.000000
v 0.250000 -0.951100 -0.309000
v -0.250000 -0.951100 -0.309000
v 0.250000 -0.809000 -0.587800
v -0.250000 -0.809000 -0.587800
v 0.250000 -0.587800 -0.809000
v -0.250000 -0.587800 -0.809000
v 0.250000 -0.309000 -0.951100
v -0.250000 -0.309000 -0.951100
v 0.250000 -0.000000 -1.000000
v -0.250000 -0.000000 -1.000000
v 0.250000 0.309000 -0.951100
v -0.250000 0.309000 -0.951100
v 0.250000 0.587800 -0.809000
v -0.250000 0.587800 -0.809000
v 0.250000 0.809000 -0.587800
v -0.250000 0.809000 -0.587800
v 0.250000 0.951100 -0.309000
v -0.250000 0.951100 -0.309000
v 0.250000 0.000000 0.000000
v -0.250000 0.000000 0.000000
vn -0.0000 0.9877 0.1563
vn 1.0000 -0.0000 -0.0000
vn -1.0000 -0.0000 -0.0000
vn -0.0000 0.8909 0.4541
vn -0.0000 0.7071 0.7071
vn -0.0000 0.4538 0.8911
vn -0.0000 0.4541 0.8909
vn -0.0000 0.1563 0.9877
vn -0.0000 -0.1563 0.9877
vn -0.0000 -0.4541 0.8909
vn -0.0000 -0.4538 0.8911
vn -0.0000 -0.7071 0.7071
vn -0.0000 -0.8909 0.4541
vn -0.0000 -0.9877 0.1563
vn -0.0000 -0.9877 -0.1563
vn -0.0000 -0.8909 -0.4541
vn -0.0000 -0.7071 -0.7071
vn -0.0000 -0.4538 -0.8911
vn -0.0000 -0.4541 -0.8909
vn -0.0000 -0.1563 -0.9877
vn -0.0000 0.1563 -0.9877
vn -0.0000 0.4541 -0.8909
vn -0.0000 0.4538 -0.8911
vn -0.0000 0.7071 -0.7071
vn -0.0000 0.9511 -0.3090
vt 0.954994 0.158436
vt 0.798925 0.158436
vt 0.954994 0.115744
vt 0.798925 0.115744
vt 0.316439 0.485081
vt 0.138640 0.174393
vt 0.202274 0.093583
vt 0.314900 0.486905
vt 0.200743 0.877401
vt 0.137112 0.796798
vt 0.954994 0.073041
vt 0.798925 0.073041
vt 0.277110 0.051112
vt 0.275573 0.919764
vt 0.954994 0.926959
vt 0.798925 0.926959
vt 0.954994 0.884269
vt 0.798925 0.884269
vt 0.355768 0.051112
vt 0.354227 0.919764
vt 0.954994 0.841567
vt 0.798925 0.841567
vt 0.430603 0.093583
vt 0.429058 0.877401
vt 0.954994 0.798874
vt 0.798925 0.798874
vt 0.494237 0.174393
vt 0.492688 0.796798
vt 0.954994 0.756182
vt 0.798925 0.756182
vt 0.540482 0.285588
vt 0.538930 0.685887
vt 0.954994 0.713479
vt 0.798925 0.713479
vt 0.564787 0.416357
vt 0.563234 0.555453
vt 0.954994 0.670790
vt 0.798925 0.670790
vt 0.564787 0.553805
vt 0.563234 0.418357
vt 0.954994 0.628087
vt 0.798925 0.628087
vt 0.540482 0.684574
vt 0.538930 0.287923
vt 0.954994 0.585395
vt 0.798925 0.585395
vt 0.494237 0.795769
vt 0.492688 0.177012
vt 0.954994 0.542703
vt 0.798925 0.542703
vt 0.430603 0.876579
vt 0.429058 0.096409
vt 0.954994 0.500000
vt 0.798925 0.500000
vt 0.355768 0.919050
vt 0.354227 0.054046
vt 0.954994 0.457311
vt 0.798925 0.457311
vt 0.277110 0.919050
vt 0.275574 0.054046
vt 0.954994 0.414608
vt 0.798925 0.414608
vt 0.202274 0.876579
vt 0.200743 0.096408
vt 0.954994 0.371916
vt 0.798925 0.371916
vt 0.138640 0.795769
vt 0.137112 0.177012
vt 0.954994 0.329224
vt 0.798925 0.329224
vt 0.092395 0.684574
vt 0.090870 0.287922
vt 0.954994 0.286521
vt 0.798925 0.286521
vt 0.068090 0.553805
vt 0.066566 0.418357
vt 0.954994 0.243831
vt 0.798925 0.243831
vt 0.068090 0.416357
vt 0.066566 0.555453
vt 0.954994 0.201128
vt 0.798925 0.201128
vt 0.092395 0.285588
vt 0.090870 0.685887
s 0
usemtl Material.001
f 1/1/1 2/2/1 3/3/1
f 4/4/1 3/3/1 2/2/1
f 41/5/2 1/6/2 3/7/2
f 42/8/3 4/9/3 2/10/3
f 3/3/4 4/4/4 5/11/4
f 6/12/4 5/11/4 4/4/4
f 41/5/2 3/7/2 5/13/2
f 42/8/3 6/14/3 4/9/3
f 5/15/5 6/16/5 7/17/5
f 8/18/5 7/17/5 6/16/5
f 41/5/2 5/13/2 7/19/2
f 42/8/3 8/20/3 6/14/3
f 7/17/6 8/18/6 9/21/6
f 10/22/7 9/21/7 8/18/7
f 41/5/2 7/19/2 9/23/2
f 42/8/3 10/24/3 8/20/3
f 9/21/8 10/22/8 11/25/8
f 12/26/8 11/25/8 10/22/8
f 41/5/2 9/23/2 11/27/2
f 42/8/3 12/28/3 10/24/3
f 11/25/9 12/26/9 13/29/9
f 14/30/9 13/29/9 12/26/9
f 41/5/2 11/27/2 13/31/2
f 42/8/3 14/32/3 12/28/3
f 13/29/10 14/30/10 15/33/10
f 16/34/11 15/33/11 14/30/11
f 41/5/2 13/31/2 15/35/2
f 42/8/3 16/36/3 14/32/3
f 15/33/12 16/34/12 17/37/12
f 18/38/12 17/37/12 16/34/12
f 41/5/2 15/35/2 17/39/2
f 42/8/3 18/40/3 16/36/3
f 17/37/13 18/38/13 19/41/13
f 20/42/13 19/41/13 18/38/13
f 41/5/2 17/39/2 19/43/2
f 42/8/3 20/44/3 18/40/3
f 19/41/14 20/42/14 21/45/14
f 22/46/14 21/45/14 20/42/14
f 41/5/2 19/43/2 21/47/2
f 42/8/3 22/48/3 20/44/3
f 21/45/15 22/46/15 23/49/15
f 24/50/15 23/49/15 22/46/15
f 41/5/2 21/47/2 23/51/2
f 42/8/3 24/52/3 22/48/3
f 23/49/16 24/50/16 25/53/16
f 26/54/16 25/53/16 24/50/16
f 41/5/2 23/51/2 25/55/2
f 42/8/3 26/56/3 24/52/3
f 25/53/17 26/54/17 27/57/17
f 28/58/17 27/57/17 26/54/17
f 41/5/2 25/55/2 27/59/2
f 42/8/3 28/60/3 26/56/3
f 27/57/18 28/58/18 29/61/18
f 30/62/19 29/61/19 28/58/19
f 41/5/2 27/59/2 29/63/2
f 42/8/3 30/64/3 28/60/3
f 29/61/20 30/62/20 31/65/20
f 32/66/20 31/65/20 30/62/20
f 41/5/2 29/63/2 31/67/2
f 42/8/3 32/68/3 30/64/3
f 31/65/21 32/66/21 33/69/21
f 34/70/21 33/69/21 32/66/21
f 41/5/2 31/67/2 33/71/2
f 42/8/3 34/72/3 32/68/3
f 33/69/22 34/70/22 35/73/22
f 36/74/23 35/73/23 34/70/23
f 41/5/2 33/71/2 35/75/2
f 42/8/3 36/76/3 34/72/3
f 35/73/24 36/74/24 37/77/24
f 38/78/24 37/77/24 36/74/24
f 41/5/2 35/75/2 37/79/2
f 42/8/3 38/80/3 36/76/3
f 37/77/25 38/78/25 39/81/25
f 40/82/25 39/81/25 38/78/25
f 41/5/2 37/79/2 39/83/2
f 42/8/3 40/84/3 38/80/3
f 39/81/25 40/82/25 1/1/25
f 40/82/25 2/2/25 1/1/25
f 41/5/2 39/83/2 1/6/2
f 42/8/3 2/10/3 40/84/3
